<?xml version="1.0" encoding="UTF-8"?>
<svg version="1.1" xmlns="http://www.w3.org/2000/svg" viewBox="0 0 485 325">
<path d="M0 0 C3.25 0.6875 3.25 0.6875 4.65136719 2.31689453 C8.59089678 8.50187328 12.21630176 14.82536973 15.75 21.25 C20.46341319 29.74832225 25.25878367 38.18725124 30.1875 46.5625 C35.27768936 55.22078059 40.21050861 63.95695848 45.0625 72.75 C52.44899172 88.03576673 52.44899172 88.03576673 62.25 101.6875 C62.81847656 100.59953125 63.38695312 99.5115625 63.97265625 98.390625 C67.51123953 91.64690927 71.04759726 84.92503802 74.9375 78.375 C77.08728517 74.74479459 79.08322819 71.1018985 80.9375 67.3125 C87.13717171 54.68108331 94.1113459 42.41733864 101.0625 30.1875 C104.50815699 24.12452812 107.66604579 17.95669882 110.75 11.703125 C115.56034483 2.03232759 115.56034483 2.03232759 118.25 0.6875 C120.41157749 0.58016399 122.57651639 0.53859383 124.74072266 0.52636719 C125.40781754 0.52140228 126.07491241 0.51643738 126.76222229 0.51132202 C128.97951283 0.49667029 131.19673138 0.48988672 133.4140625 0.484375 C134.96471151 0.47861764 136.51536052 0.47285999 138.06600952 0.46710205 C141.32949148 0.45657784 144.59294876 0.45074724 147.85644531 0.44726562 C151.9937015 0.4418355 156.13061939 0.41793357 160.26777077 0.38929367 C163.48016218 0.37043938 166.69247666 0.36544935 169.90491867 0.36392975 C171.42681057 0.360944 172.9487025 0.35305768 174.47053909 0.33974457 C188.17113574 0.22863681 201.88551601 1.31577463 214.4375 7.3125 C215.18451172 7.65877441 215.93152344 8.00504883 216.70117188 8.36181641 C238.823316 18.95371703 252.86324756 36.02714005 261.25 58.6875 C261.5903125 59.59886719 261.930625 60.51023438 262.28125 61.44921875 C264.08694504 67.04185755 264.54320212 72.4137863 264.625 78.25 C264.63901855 78.95366699 264.65303711 79.65733398 264.66748047 80.38232422 C264.6484375 82.37890625 264.6484375 82.37890625 264.25 85.6875 C261.05474905 87.8176673 260.22120388 87.94195392 256.55078125 87.9621582 C255.59969482 87.97169022 254.6486084 87.98122223 253.66870117 87.99104309 C252.64365479 87.99013168 251.6186084 87.98922028 250.5625 87.98828125 C249.50844971 87.99256638 248.45439941 87.9968515 247.3684082 88.00126648 C245.13916747 88.0070112 242.90990798 88.007509 240.68066406 88.00317383 C237.26334815 88.00001235 233.84689642 88.02347718 230.4296875 88.04882812 C228.2656261 88.05110088 226.10156236 88.05180473 223.9375 88.05078125 C222.91245361 88.059991 221.88740723 88.06920074 220.83129883 88.07868958 C219.40466919 88.06934639 219.40466919 88.06934639 217.94921875 88.05981445 C216.69371216 88.06075859 216.69371216 88.06075859 215.4128418 88.0617218 C212.74102701 87.59943587 211.88041107 86.81781734 210.25 84.6875 C209.4765625 82.0859375 209.4765625 82.0859375 208.875 79.0625 C206.40217595 68.4113256 201.2368108 60.99598177 192.18359375 54.82421875 C183.88179205 49.94376563 174.39167253 49.44226306 165.0625 51.375 C154.80375461 54.43985339 147.24694606 60.74311798 142.06640625 70.0390625 C140.96969675 72.12390138 139.88573539 74.21548052 138.8125 76.3125 C137.90040614 78.04971002 136.98825734 79.78689278 136.07359314 81.52275085 C135.4370836 82.73154254 134.80206127 83.94111843 134.16847229 85.15144348 C130.97045562 91.25434004 127.65317649 97.28895169 124.31417847 103.31558228 C123.31308584 105.12394175 122.31545936 106.93417513 121.31860352 108.74487305 C118.24472486 114.32158693 115.14903135 119.88387938 111.98838806 125.41197205 C110.57374693 127.88752943 109.16784616 130.3680036 107.76217651 132.84866333 C106.77406044 134.58277471 105.77207928 136.30896235 104.76977539 138.03491211 C104.17543701 139.08428955 103.58109863 140.13366699 102.96875 141.21484375 C102.17887695 142.58757446 102.17887695 142.58757446 101.37304688 143.98803711 C99.66069618 148.10400704 99.77575811 151.34288475 101.24609375 155.51171875 C110.27327259 173.44375693 124.95751266 186.65141771 144.078125 193.04296875 C169.25494333 200.462095 197.0907254 198.39631211 220.31640625 186.05859375 C230.96713826 179.67407985 238.12198688 171.38746008 244.25 160.6875 C244.83394531 159.72263672 244.83394531 159.72263672 245.4296875 158.73828125 C249.97595251 150.61491626 251.73825632 140.75796208 253.25 131.6875 C242.36 131.6875 231.47 131.6875 220.25 131.6875 C219.92 133.6675 219.59 135.6475 219.25 137.6875 C217.22174355 144.56103576 213.92333512 149.29519025 209.25 154.6875 C208.42822266 155.65236328 208.42822266 155.65236328 207.58984375 156.63671875 C199.50973267 165.44270269 188.24717126 168.90666032 176.609375 170.04296875 C162.83625376 170.56725423 151.41649585 165.98167561 141.25 156.6875 C131.74292865 146.12408739 126.3971028 132.4274075 124.89453125 118.359375 C125.36353288 113.51474281 127.25090453 110.3513684 129.75 106.25 C130.17925781 105.51845703 130.60851562 104.78691406 131.05078125 104.03320312 C132.10367463 102.24328437 133.17500282 100.46423146 134.25 98.6875 C134.58 98.6875 134.91 98.6875 135.25 98.6875 C135.28867187 100.46640625 135.28867187 100.46640625 135.328125 102.28125 C135.85835283 119.34784755 137.93912202 136.10283627 150.125 149.125 C158.45201608 156.90964338 167.1082515 158.17595517 178.1328125 157.95703125 C186.96991161 157.54576781 193.90320047 154.19798739 200.24609375 148.08203125 C205.88365344 141.34553205 208.70220216 133.36083682 210.51171875 124.8671875 C211.25 122.6875 211.25 122.6875 214.25 120.6875 C216.3681488 120.42007446 216.3681488 120.42007446 218.84155273 120.39697266 C220.23330971 120.3778331 220.23330971 120.3778331 221.65318298 120.35830688 C223.15323631 120.35496841 223.15323631 120.35496841 224.68359375 120.3515625 C225.71307632 120.3449057 226.7425589 120.3382489 227.80323792 120.33139038 C229.98119315 120.32126213 232.15917944 120.31657341 234.3371582 120.31689453 C237.67125493 120.31252131 241.00402819 120.27620243 244.33789062 120.23828125 C246.45312047 120.23241321 248.5683566 120.22844373 250.68359375 120.2265625 C251.68160507 120.21219147 252.67961639 120.19782043 253.70787048 120.18301392 C260.58477606 120.22846594 260.58477606 120.22846594 263.88867188 122.50830078 C267.2805432 127.93797142 265.09602855 136.7045431 263.80712891 142.77246094 C260.29703451 156.8602265 254.04366432 169.89666259 244.25 180.6875 C243.49976563 181.53054687 242.74953125 182.37359375 241.9765625 183.2421875 C228.29777398 197.8063345 206.38337783 207.86861014 186.21069336 208.83276367 C182.53620258 208.85751399 178.86208045 208.87315995 175.1875 208.875 C173.92744141 208.88724609 172.66738281 208.89949219 171.36914062 208.91210938 C160.38143681 208.92914457 150.09994729 207.78395984 139.75 204 C139.0293335 203.73944824 138.30866699 203.47889648 137.56616211 203.21044922 C119.69996058 196.50590423 105.6936343 184.43815593 95.25 168.6875 C94.52167969 167.59566406 93.79335937 166.50382813 93.04296875 165.37890625 C92.45128906 164.49074219 91.85960937 163.60257813 91.25 162.6875 C90.90855957 163.32026855 90.56711914 163.95303711 90.21533203 164.60498047 C86.81293774 170.90710377 83.40128712 177.20413228 79.98193359 183.49707031 C78.89156133 185.50566698 77.80307368 187.51528899 76.71728516 189.52636719 C75.38072174 192.00046079 74.03546597 194.46960545 72.6875 196.9375 C72.2951416 197.6682373 71.9027832 198.39897461 71.49853516 199.15185547 C67.64855127 206.15652516 67.64855127 206.15652516 64.25 208.6875 C61.80541992 209.02050781 61.80541992 209.02050781 59.25 208.6875 C57.66894531 207.10546875 57.66894531 207.10546875 56.328125 204.875 C55.82345703 204.05 55.31878906 203.225 54.79882812 202.375 C54.28771484 201.488125 53.77660156 200.60125 53.25 199.6875 C52.49106445 198.388125 52.49106445 198.388125 51.71679688 197.0625 C50.11964342 194.2841395 48.55643934 191.48885445 47 188.6875 C42.64699938 180.91361614 38.24483358 173.17864409 33.67285156 165.53125 C30.96365155 160.97845492 28.41095862 156.35185518 25.88549805 151.69482422 C22.91664569 146.23575222 19.89276811 140.80713622 16.875 135.375 C16.38409378 134.49015427 16.38409378 134.49015427 15.88327026 133.58743286 C11.4936657 125.67589726 7.05887135 117.79558057 2.47265625 109.99609375 C1.25 107.6875 1.25 107.6875 1.25 105.6875 C0.59 105.6875 -0.07 105.6875 -0.75 105.6875 C-1.15400024 106.75133911 -1.15400024 106.75133911 -1.56616211 107.83666992 C-2.78426588 110.77001653 -4.18309672 113.50599309 -5.69140625 116.30078125 C-6.27051758 117.37585938 -6.84962891 118.4509375 -7.44628906 119.55859375 C-8.06213867 120.69425781 -8.67798828 121.82992187 -9.3125 123 C-9.95155697 124.18225947 -10.59055397 125.36455135 -11.22949219 126.546875 C-15.63137142 134.68004288 -20.1197392 142.75975117 -24.68457031 150.80224609 C-26.59981873 154.19123516 -28.48644222 157.59608852 -30.375 161 C-30.77589844 161.7211499 -31.17679687 162.4422998 -31.58984375 163.18530273 C-33.90935508 167.36015713 -36.22027094 171.53959875 -38.52194214 175.72431946 C-39.84870981 178.13502818 -41.17868327 180.54396124 -42.50897217 182.95272827 C-43.47445402 184.70367127 -44.43577093 186.4569088 -45.39697266 188.21020508 C-54.19678191 204.13428191 -54.19678191 204.13428191 -57.75 207.6875 C-59.48836291 207.79160433 -61.23094777 207.82603527 -62.97241211 207.83276367 C-64.0870433 207.83914352 -65.2016745 207.84552338 -66.3500824 207.85209656 C-68.17032677 207.85376579 -68.17032677 207.85376579 -70.02734375 207.85546875 C-71.88257408 207.86046135 -71.88257408 207.86046135 -73.77528381 207.86555481 C-76.39730455 207.8706293 -79.01933178 207.87296298 -81.64135742 207.87280273 C-84.33706342 207.87272129 -87.03260019 207.87968657 -89.72827148 207.89331055 C-93.59884898 207.91155346 -97.46922767 207.91653586 -101.33984375 207.91796875 C-103.15705177 207.92874702 -103.15705177 207.92874702 -105.01097107 207.93974304 C-106.12875443 207.93666641 -107.24653778 207.93358978 -108.39819336 207.93041992 C-109.38556992 207.93184494 -110.37294647 207.93326996 -111.39024353 207.93473816 C-113.75 207.6875 -113.75 207.6875 -115.75 205.6875 C-116.81845718 198.78780192 -113.75208736 194.16506477 -110.375 188.3125 C-109.8269873 187.33643799 -109.27897461 186.36037598 -108.71435547 185.35473633 C-105.11618684 178.97625957 -101.42189366 172.6528275 -97.67553711 166.36035156 C-92.09729286 156.96933845 -86.84271883 147.39342196 -81.52148438 137.85546875 C-77.17479493 130.08222698 -72.77740678 122.33750446 -68.38964844 114.58740234 C-66.67576035 111.55619885 -64.96632083 108.52251994 -63.2578125 105.48828125 C-62.6810376 104.46492676 -62.1042627 103.44157227 -61.51000977 102.38720703 C-60.41829597 100.44997637 -59.3275578 98.51219541 -58.23803711 96.57373047 C-55.79824493 92.24759019 -53.32165767 87.95390947 -50.74609375 83.70703125 C-48.14360089 79.39716777 -45.7100081 75.01419384 -43.31738281 70.58496094 C-34.0619174 53.47532488 -24.48805513 36.52629104 -14.75 19.6875 C-14.27095215 18.85847168 -13.7919043 18.02944336 -13.29833984 17.17529297 C-11.91178214 14.78084155 -10.51978113 12.38966889 -9.125 10 C-8.71080811 9.28634277 -8.29661621 8.57268555 -7.86987305 7.83740234 C-3.83108954 0.95777239 -3.83108954 0.95777239 0 0 Z M121.5390625 13.55102539 C120.90097656 15.10358032 120.90097656 15.10358032 120.25 16.6875 C119.76660156 17.62464844 119.28320312 18.56179687 118.78515625 19.52734375 C118.29917969 20.54957031 117.81320312 21.57179688 117.3125 22.625 C114.21747857 28.98727699 110.77126084 35.11527035 107.25 41.25 C101.33811931 51.56800329 95.83308017 62.0635403 90.45117188 72.66430664 C87.33197109 78.77982803 84.10866705 84.75791886 80.52075195 90.61157227 C79.0381135 93.03364235 77.65875488 95.49981236 76.3125 98 C75.82394531 98.90234375 75.33539063 99.8046875 74.83203125 100.734375 C73.67838721 102.88784387 72.53076717 105.04454307 71.38671875 107.203125 C71.07275146 107.79311279 70.75878418 108.38310059 70.43530273 108.9909668 C69.54218909 110.67065455 68.65378882 112.35284595 67.765625 114.03515625 C66.25 116.6875 66.25 116.6875 64.25 118.6875 C61.5234375 118.953125 61.5234375 118.953125 58.25 117.6875 C55.66013825 114.54161347 53.8131754 111.01030825 51.875 107.4375 C51.27558594 106.37208984 50.67617187 105.30667969 50.05859375 104.20898438 C48.43566111 101.31280251 46.83208026 98.40767966 45.23937988 95.49487305 C43.59263661 92.48664591 41.93186593 89.48617047 40.2734375 86.484375 C38.25173275 82.8218548 36.23289362 79.15781859 34.22216797 75.48925781 C28.84625444 65.69189426 23.26205487 56.02752941 17.58984375 46.3984375 C15.29038426 42.48861612 13.03722365 38.55658167 10.81640625 34.6015625 C10.26823242 33.62767578 9.72005859 32.65378906 9.15527344 31.65039062 C8.12011207 29.8060136 7.09049365 27.95851071 6.06738281 26.10742188 C5.6081543 25.29080078 5.14892578 24.47417969 4.67578125 23.6328125 C4.27786377 22.91625488 3.87994629 22.19969727 3.4699707 21.46142578 C2.20804211 19.3914033 2.20804211 19.3914033 -0.75 17.6875 C-9.6687439 33.25577917 -18.51684594 48.86305978 -27.33105469 64.49072266 C-28.90762022 67.28581126 -30.48482452 70.08053776 -32.0625 72.875 C-32.59238525 73.81359863 -33.12227051 74.75219727 -33.66821289 75.71923828 C-37.28928815 82.12496838 -40.9380715 88.51447401 -44.59692383 94.89868164 C-45.27295935 96.07828195 -45.94898469 97.2578881 -46.625 98.4375 C-47.12898819 99.31678665 -47.12898819 99.31678665 -47.64315796 100.21383667 C-52.62749568 108.91498398 -57.52646324 117.65971511 -62.375 126.4375 C-67.69699065 136.07165695 -73.1680043 145.60481589 -78.74462891 155.09350586 C-83.87072087 163.83745553 -88.77855599 172.69064472 -93.61181641 181.59912109 C-94.65103343 183.50591269 -95.70246096 185.40506952 -96.76171875 187.30078125 C-97.31472656 188.29464844 -97.86773437 189.28851563 -98.4375 190.3125 C-98.89511719 191.12976563 -99.35273437 191.94703125 -99.82421875 192.7890625 C-100.89610477 194.6350839 -100.89610477 194.6350839 -100.75 196.6875 C-88.21 196.6875 -75.67 196.6875 -62.75 196.6875 C-59.8109375 191.2425 -59.8109375 191.2425 -56.8125 185.6875 C-49.9256269 172.96291247 -42.9234378 160.33144455 -35.5625 147.875 C-31.01352365 140.17547765 -26.67578427 132.39698982 -22.55078125 124.4609375 C-18.09113845 115.89656848 -13.52913332 107.41831176 -8.6875 99.0625 C-8.21030518 98.23878906 -7.73311035 97.41507812 -7.24145508 96.56640625 C-3.88973517 90.82723517 -3.88973517 90.82723517 -2.75 89.6875 C0.03515625 89.19921875 0.03515625 89.19921875 3.25 89.6875 C5.11229563 91.98379148 6.33805154 93.9140733 7.6875 96.5 C8.09798584 97.24048584 8.50847168 97.98097168 8.93139648 98.74389648 C9.861992 100.4275007 10.78228388 102.11682546 11.69433594 103.81054688 C13.40702464 106.97789209 15.15730016 110.12251843 16.9140625 113.265625 C19.51791355 117.9268074 22.11198538 122.59303535 24.6953125 127.265625 C30.6885767 138.10215437 36.77216136 148.88537785 42.9375 159.625 C44.81275838 162.90499739 46.65794965 166.20124776 48.5 169.5 C49.3647998 171.04385376 49.3647998 171.04385376 50.24707031 172.61889648 C51.39594628 174.67103218 52.54126164 176.72516624 53.68261719 178.78149414 C56.25645439 183.37134811 58.74113177 187.72724823 62.25 191.6875 C66.59736104 184.59337426 70.68603043 177.37675322 74.68411255 170.08078003 C76.06999259 167.55210429 77.46051183 165.02598954 78.85075378 162.49971008 C79.57166298 161.18966772 80.29237542 159.87951706 81.01289368 158.56925964 C84.76516357 151.74658094 88.53514118 144.93381487 92.3125 138.125 C92.90667725 137.0512915 93.50085449 135.97758301 94.11303711 134.87133789 C97.56171056 128.65790104 101.08549441 122.4952295 104.68798828 116.36962891 C108.08870102 110.53026815 111.27156691 104.57570286 114.390625 98.58203125 C119.11699385 89.50673984 123.9492052 80.49688843 128.9375 71.5625 C129.45965088 70.61536133 129.98180176 69.66822266 130.51977539 68.69238281 C138.47179444 54.55934565 146.97091624 45.74547985 162.65625 40.5625 C174.76781028 37.61359837 187.25496667 40.13811997 198.25 45.6875 C209.93362196 53.09340876 215.95691526 63.80824579 220.25 76.6875 C231.14 76.6875 242.03 76.6875 253.25 76.6875 C251.5626524 58.1266764 243.94366338 42.54998503 230.25 29.6875 C222.55724571 23.49577094 214.58045491 19.02640395 205.25 15.6875 C204.49332031 15.39230469 203.73664063 15.09710938 202.95703125 14.79296875 C192.14957755 10.79677002 180.6191298 10.36130038 169.21484375 10.28125 C167.93315811 10.26984985 166.65147247 10.25844971 165.33094788 10.2467041 C162.64778092 10.22593632 159.96472968 10.2140799 157.28149414 10.20703125 C153.84795412 10.19594273 150.41595322 10.14754174 146.98290157 10.09108734 C143.68533362 10.04495518 140.38768927 10.04095472 137.08984375 10.03125 C135.86071762 10.0065564 134.63159149 9.98186279 133.36521912 9.9564209 C126.6771613 9.77657737 126.6771613 9.77657737 121.5390625 13.55102539 Z " fill="#3673F5" transform="translate(156.75,51.3125)"/>
</svg>
